:SAMPLES-PER-SECOND 30
:FULLY-SPECIFIED
:DEGREES
67
root  -21.8648 39.0397 -14.8413 168.381 -61.4594 -171.078
RightUpLeg  9.31594 -13.9873 0.148116
RightLeg  19.3578 -2.12028 0.722918
RightFoot  -21.5518 -0.0688901 0.844299
RightToes  0.000482159 0.542163 -0.142577
Spine  15.6561 -0.458522 12.2599
Spine1  9.62675 2.22882 -4.56976
HEad  13.7332 13.4187 -9.46424
LeftShoulder1  6.73521 -11.2715 -39.3663
LeftArm  -13.6032 8.57944 -31.3974
LeftForeArm  20.5485 -13.3319 -4.44662
LeftHand  -0.25398 0.0180481 5.50724
RightShoulder  4.13295 8.65905 27.9718
RightArm  -8.17159 21.7828 26.1946
RightForeArm  0.225029 16.066 6.08018
RightHand  -1.27246 2.79797 -18.183
LeftUpLeg  -21.5187 6.09314 6.49526
LeftLeg  -7.17299 29.6511 -9.2435
LeftFoot  -1.07719 0.514459 -5.67134
LeftToes  1.06245e-005 4.65856e-005 -8.18503e-006
68
root  -23.2524 38.5914 -15.5502 166.574 -61.9659 -169.436
RightUpLeg  12.1287 -15.0894 -0.084232
RightLeg  20.3272 -1.17998 0.542422
RightFoot  -23.4005 0.0616728 2.1017
RightToes  0.000482159 0.542163 -0.142577
Spine  15.492 -0.648907 11.8611
Spine1  10.0006 1.91952 -4.43343
HEad  13.0474 13.959 -9.03832
LeftShoulder1  6.69451 -11.3091 -38.9955
LeftArm  -14.1471 9.24948 -30.3946
LeftForeArm  19.6589 -9.49854 -4.61742
LeftHand  -0.25398 0.0180481 5.50724
RightShoulder  4.11403 8.73163 27.6051
RightArm  -7.36973 24.1879 27.2244
RightForeArm  -1.09881 17.7664 5.69262
RightHand  -1.24269 2.51693 -18.3692
LeftUpLeg  -22.09 6.1538 6.57258
LeftLeg  -9.71055 33.0583 -10.0629
LeftFoot  -3.00436 0.455046 -5.92919
LeftToes  1.06245e-005 4.65856e-005 -8.18503e-006
69
root  -24.6735 38.1715 -16.2969 165.81 -62.9694 -168.809
RightUpLeg  14.7461 -16.5805 -0.951643
RightLeg  21.6416 -0.424288 0.12882
RightFoot  -24.7879 0.162351 2.79278
RightToes  0.000482159 0.542163 -0.142577
Spine  15.7194 -0.786822 10.3897
Spine1  10.5149 1.71409 -4.26214
HEad  12.2166 13.9907 -8.1717
LeftShoulder1  6.72696 -11.5428 -38.5323
LeftArm  -13.3568 9.32783 -29.3003
LeftForeArm  18.4124 -5.91781 -4.64105
LeftHand  -0.25398 0.0180481 5.50724
RightShoulder  4.15822 8.87325 27.5757
RightArm  -6.4338 24.754 28.2721
RightForeArm  -3.35089 21.3077 5.24508
RightHand  -1.25072 2.39822 -18.7512
LeftUpLeg  -22.7102 6.86921 6.19451
LeftLeg  -7.2453 35.4632 -9.88967
LeftFoot  -3.40108 0.316998 -4.28874
LeftToes  1.06245e-005 4.65856e-005 -8.18503e-006
70
root  -26.1232 37.7843 -17.0948 167.309 -63.5375 -170.035
RightUpLeg  16.2005 -16.28 -1.8879
RightLeg  23.6727 -0.618365 -0.566061
RightFoot  -25.7214 0.479396 5.13676
RightToes  0.000482159 0.542163 -0.142577
Spine  15.8312 -0.27332 7.64671
Spine1  11.1415 1.99543 -4.03563
HEad  11.3073 13.5785 -6.91523
LeftShoulder1  6.77813 -11.8189 -38.0803
LeftArm  -12.6245 9.13178 -28.1327
LeftForeArm  18.1839 -3.67042 -4.66369
LeftHand  -0.25398 0.0180481 5.50724
RightShoulder  4.34034 9.11661 28.3921
RightArm  -7.36579 23.7998 28.6884
RightForeArm  -3.01102 26.2537 5.74472
RightHand  -1.25118 2.28571 -19.0202
LeftUpLeg  -23.9118 8.7713 5.24149
LeftLeg  -2.19306 36.6956 -8.64567
LeftFoot  0.91204 -0.181916 1.30868
LeftToes  1.06245e-005 4.65856e-005 -8.18503e-006
71
root  -27.5297 37.4566 -17.8751 170.521 -63.8058 -172.577
RightUpLeg  15.2868 -14.1028 -2.65556
RightLeg  28.3838 -1.45395 -1.08527
RightFoot  -24.5947 1.01721 10.3667
RightToes  0.000482159 0.542163 -0.142577
Spine  16.3963 0.584438 4.09128
Spine1  11.1064 2.26317 -3.52397
HEad  10.227 13.0042 -5.61842
LeftShoulder1  6.8271 -11.9754 -37.9553
LeftArm  -12.6975 8.84583 -26.834
LeftForeArm  18.837 -3.32772 -4.54752
LeftHand  -0.25398 0.0180481 5.50724
RightShoulder  4.62981 9.43115 29.8253
RightArm  -9.14054 22.1508 29.061
RightForeArm  0.316879 31.5822 6.92782
RightHand  -1.1547 1.72077 -18.9191
LeftUpLeg  -27.7382 14.9513 1.32911
LeftLeg  6.04067 31.6185 -4.29599
LeftFoot  7.85898 -1.70788 9.69888
LeftToes  1.06245e-005 4.65856e-005 -8.18503e-006
72
root  -28.7917 37.2755 -18.519 173.357 -65.0081 -174.866
RightUpLeg  11.3146 -13.4471 -3.75151
RightLeg  37.9454 -1.93085 -1.92644
RightFoot  -18.0935 0.744351 14.539
RightToes  0.000482159 0.542163 -0.142577
Spine  18.9584 0.815976 1.13118
Spine1  9.8846 1.82299 -2.99234
HEad  8.50676 12.2392 -4.94646
LeftShoulder1  7.00909 -12.252 -38.3186
LeftArm  -13.1991 7.99131 -25.3883
LeftForeArm  18.9306 -4.35829 -4.44644
LeftHand  -0.25398 0.0180481 5.50724
RightShoulder  4.91635 9.78607 31.0442
RightArm  -10.3163 20.4198 29.9937
RightForeArm  3.66593 36.2499 8.01441
RightHand  -1.04216 0.99618 -18.9687
LeftUpLeg  -33.5425 26.1722 -7.99307
LeftLeg  13.006 16.5503 0.720682
LeftFoot  12.5091 -3.59093 16.669
LeftToes  1.06245e-005 4.65856e-005 -8.18503e-006
